<?xml version="1.0" encoding="utf-8" standalone="no"?>
<!DOCTYPE svg PUBLIC "-//W3C//DTD SVG 1.1//EN"
  "http://www.w3.org/Graphics/SVG/1.1/DTD/svg11.dtd">
<svg xmlns:xlink="http://www.w3.org/1999/xlink" width="816.60075pt" height="812.456325pt" viewBox="0 0 816.60075 812.456325" xmlns="http://www.w3.org/2000/svg" version="1.1">
 <metadata>
  <rdf:RDF xmlns:dc="http://purl.org/dc/elements/1.1/" xmlns:cc="http://creativecommons.org/ns#" xmlns:rdf="http://www.w3.org/1999/02/22-rdf-syntax-ns#">
   <cc:Work>
    <dc:type rdf:resource="http://purl.org/dc/dcmitype/StillImage"/>
    <dc:date>2025-09-15T15:59:06.900929</dc:date>
    <dc:format>image/svg+xml</dc:format>
    <dc:creator>
     <cc:Agent>
      <dc:title>Matplotlib v3.9.3, https://matplotlib.org/</dc:title>
     </cc:Agent>
    </dc:creator>
   </cc:Work>
  </rdf:RDF>
 </metadata>
 <defs>
  <style type="text/css">*{stroke-linejoin: round; stroke-linecap: butt}</style>
 </defs>
 <g id="figure_1">
  <g id="patch_1">
   <path d="M 0 812.456325 
L 816.60075 812.456325 
L 816.60075 0 
L 0 0 
z
" style="fill: #ffffff"/>
  </g>
  <g id="axes_1">
   <g id="patch_2">
    <path d="M 83.08875 737.764 
L 809.40075 737.764 
L 809.40075 34.56 
L 83.08875 34.56 
z
" style="fill: #d3d3d3"/>
   </g>
   <g id="matplotlib.axis_1">
    <g id="xtick_1">
     <g id="line2d_1">
      <path d="M 151.475269 737.764 
L 151.475269 34.56 
" clip-path="url(#p3c9c0d63e3)" style="fill: none; stroke: #ffffff; stroke-width: 2; stroke-linecap: round"/>
     </g>
     <g id="line2d_2">
      <defs>
       <path id="m3a02126dab" d="M 0 0 
L 0 12 
" style="stroke: #262626; stroke-width: 2.5"/>
      </defs>
      <g>
       <use xlink:href="#m3a02126dab" x="151.475269" y="737.764" style="fill: #262626; stroke: #262626; stroke-width: 2.5"/>
      </g>
     </g>
     <g id="text_1">
      <!-- Intel -->
      <g style="fill: #262626" transform="translate(124.343082 772.160625) scale(0.264 -0.264)">
       <defs>
        <path id="Arial-BoldMT-49" d="M 438 0 
L 438 4581 
L 1363 4581 
L 1363 0 
L 438 0 
z
" transform="scale(0.015625)"/>
        <path id="Arial-BoldMT-6e" d="M 3478 0 
L 2600 0 
L 2600 1694 
Q 2600 2231 2544 2389 
Q 2488 2547 2361 2634 
Q 2234 2722 2056 2722 
Q 1828 2722 1647 2597 
Q 1466 2472 1398 2265 
Q 1331 2059 1331 1503 
L 1331 0 
L 453 0 
L 453 3319 
L 1269 3319 
L 1269 2831 
Q 1703 3394 2363 3394 
Q 2653 3394 2893 3289 
Q 3134 3184 3257 3021 
Q 3381 2859 3429 2653 
Q 3478 2447 3478 2063 
L 3478 0 
z
" transform="scale(0.015625)"/>
        <path id="Arial-BoldMT-74" d="M 1981 3319 
L 1981 2619 
L 1381 2619 
L 1381 1281 
Q 1381 875 1398 808 
Q 1416 741 1477 697 
Q 1538 653 1625 653 
Q 1747 653 1978 738 
L 2053 56 
Q 1747 -75 1359 -75 
Q 1122 -75 931 4 
Q 741 84 652 211 
Q 563 338 528 553 
Q 500 706 500 1172 
L 500 2619 
L 97 2619 
L 97 3319 
L 500 3319 
L 500 3978 
L 1381 4491 
L 1381 3319 
L 1981 3319 
z
" transform="scale(0.015625)"/>
        <path id="Arial-BoldMT-65" d="M 2381 1056 
L 3256 909 
Q 3088 428 2723 176 
Q 2359 -75 1813 -75 
Q 947 -75 531 491 
Q 203 944 203 1634 
Q 203 2459 634 2926 
Q 1066 3394 1725 3394 
Q 2466 3394 2894 2905 
Q 3322 2416 3303 1406 
L 1103 1406 
Q 1113 1016 1316 798 
Q 1519 581 1822 581 
Q 2028 581 2168 693 
Q 2309 806 2381 1056 
z
M 2431 1944 
Q 2422 2325 2234 2523 
Q 2047 2722 1778 2722 
Q 1491 2722 1303 2513 
Q 1116 2303 1119 1944 
L 2431 1944 
z
" transform="scale(0.015625)"/>
        <path id="Arial-BoldMT-6c" d="M 459 0 
L 459 4581 
L 1338 4581 
L 1338 0 
L 459 0 
z
" transform="scale(0.015625)"/>
       </defs>
       <use xlink:href="#Arial-BoldMT-49"/>
       <use xlink:href="#Arial-BoldMT-6e" x="27.783203"/>
       <use xlink:href="#Arial-BoldMT-74" x="88.867188"/>
       <use xlink:href="#Arial-BoldMT-65" x="122.167969"/>
       <use xlink:href="#Arial-BoldMT-6c" x="177.783203"/>
      </g>
      <!-- PVC -->
      <g style="fill: #262626" transform="translate(124.332769 800.04645) scale(0.264 -0.264)">
       <defs>
        <path id="Arial-BoldMT-50" d="M 466 0 
L 466 4581 
L 1950 4581 
Q 2794 4581 3050 4513 
Q 3444 4409 3709 4064 
Q 3975 3719 3975 3172 
Q 3975 2750 3822 2462 
Q 3669 2175 3433 2011 
Q 3197 1847 2953 1794 
Q 2622 1728 1994 1728 
L 1391 1728 
L 1391 0 
L 466 0 
z
M 1391 3806 
L 1391 2506 
L 1897 2506 
Q 2444 2506 2628 2578 
Q 2813 2650 2917 2803 
Q 3022 2956 3022 3159 
Q 3022 3409 2875 3571 
Q 2728 3734 2503 3775 
Q 2338 3806 1838 3806 
L 1391 3806 
z
" transform="scale(0.015625)"/>
        <path id="Arial-BoldMT-56" d="M 1634 0 
L -3 4581 
L 1000 4581 
L 2159 1191 
L 3281 4581 
L 4263 4581 
L 2622 0 
L 1634 0 
z
" transform="scale(0.015625)"/>
        <path id="Arial-BoldMT-43" d="M 3397 1684 
L 4294 1400 
Q 4088 650 3608 286 
Q 3128 -78 2391 -78 
Q 1478 -78 890 545 
Q 303 1169 303 2250 
Q 303 3394 893 4026 
Q 1484 4659 2447 4659 
Q 3288 4659 3813 4163 
Q 4125 3869 4281 3319 
L 3366 3100 
Q 3284 3456 3026 3662 
Q 2769 3869 2400 3869 
Q 1891 3869 1573 3503 
Q 1256 3138 1256 2319 
Q 1256 1450 1568 1081 
Q 1881 713 2381 713 
Q 2750 713 3015 947 
Q 3281 1181 3397 1684 
z
" transform="scale(0.015625)"/>
       </defs>
       <use xlink:href="#Arial-BoldMT-50"/>
       <use xlink:href="#Arial-BoldMT-56" x="66.699219"/>
       <use xlink:href="#Arial-BoldMT-43" x="133.398438"/>
      </g>
     </g>
    </g>
    <g id="xtick_2">
     <g id="line2d_3">
      <path d="M 269.383062 737.764 
L 269.383062 34.56 
" clip-path="url(#p3c9c0d63e3)" style="fill: none; stroke: #ffffff; stroke-width: 2; stroke-linecap: round"/>
     </g>
     <g id="line2d_4">
      <g>
       <use xlink:href="#m3a02126dab" x="269.383062" y="737.764" style="fill: #262626; stroke: #262626; stroke-width: 2.5"/>
      </g>
     </g>
     <g id="text_2">
      <!-- NVIDIA -->
      <g style="fill: #262626" transform="translate(224.645374 772.160625) scale(0.264 -0.264)">
       <defs>
        <path id="Arial-BoldMT-4e" d="M 475 0 
L 475 4581 
L 1375 4581 
L 3250 1522 
L 3250 4581 
L 4109 4581 
L 4109 0 
L 3181 0 
L 1334 2988 
L 1334 0 
L 475 0 
z
" transform="scale(0.015625)"/>
        <path id="Arial-BoldMT-44" d="M 463 4581 
L 2153 4581 
Q 2725 4581 3025 4494 
Q 3428 4375 3715 4072 
Q 4003 3769 4153 3330 
Q 4303 2891 4303 2247 
Q 4303 1681 4163 1272 
Q 3991 772 3672 463 
Q 3431 228 3022 97 
Q 2716 0 2203 0 
L 463 0 
L 463 4581 
z
M 1388 3806 
L 1388 772 
L 2078 772 
Q 2466 772 2638 816 
Q 2863 872 3011 1006 
Q 3159 1141 3253 1448 
Q 3347 1756 3347 2288 
Q 3347 2819 3253 3103 
Q 3159 3388 2990 3547 
Q 2822 3706 2563 3763 
Q 2369 3806 1803 3806 
L 1388 3806 
z
" transform="scale(0.015625)"/>
        <path id="Arial-BoldMT-41" d="M 4597 0 
L 3591 0 
L 3191 1041 
L 1359 1041 
L 981 0 
L 0 0 
L 1784 4581 
L 2763 4581 
L 4597 0 
z
M 2894 1813 
L 2263 3513 
L 1644 1813 
L 2894 1813 
z
" transform="scale(0.015625)"/>
       </defs>
       <use xlink:href="#Arial-BoldMT-4e"/>
       <use xlink:href="#Arial-BoldMT-56" x="72.216797"/>
       <use xlink:href="#Arial-BoldMT-49" x="138.916016"/>
       <use xlink:href="#Arial-BoldMT-44" x="166.699219"/>
       <use xlink:href="#Arial-BoldMT-49" x="238.916016"/>
       <use xlink:href="#Arial-BoldMT-41" x="266.699219"/>
      </g>
      <!-- A100 -->
      <g style="fill: #262626" transform="translate(237.828874 800.04645) scale(0.264 -0.264)">
       <defs>
        <path id="Arial-BoldMT-31" d="M 2519 0 
L 1641 0 
L 1641 3309 
Q 1159 2859 506 2644 
L 506 3441 
Q 850 3553 1253 3867 
Q 1656 4181 1806 4600 
L 2519 4600 
L 2519 0 
z
" transform="scale(0.015625)"/>
        <path id="Arial-BoldMT-30" d="M 1756 4600 
Q 2422 4600 2797 4125 
Q 3244 3563 3244 2259 
Q 3244 959 2794 391 
Q 2422 -78 1756 -78 
Q 1088 -78 678 436 
Q 269 950 269 2269 
Q 269 3563 719 4131 
Q 1091 4600 1756 4600 
z
M 1756 3872 
Q 1597 3872 1472 3770 
Q 1347 3669 1278 3406 
Q 1188 3066 1188 2259 
Q 1188 1453 1269 1151 
Q 1350 850 1473 750 
Q 1597 650 1756 650 
Q 1916 650 2041 751 
Q 2166 853 2234 1116 
Q 2325 1453 2325 2259 
Q 2325 3066 2244 3367 
Q 2163 3669 2039 3770 
Q 1916 3872 1756 3872 
z
" transform="scale(0.015625)"/>
       </defs>
       <use xlink:href="#Arial-BoldMT-41"/>
       <use xlink:href="#Arial-BoldMT-31" x="72.216797"/>
       <use xlink:href="#Arial-BoldMT-30" x="127.832031"/>
       <use xlink:href="#Arial-BoldMT-30" x="183.447266"/>
      </g>
     </g>
    </g>
    <g id="xtick_3">
     <g id="line2d_5">
      <path d="M 387.290854 737.764 
L 387.290854 34.56 
" clip-path="url(#p3c9c0d63e3)" style="fill: none; stroke: #ffffff; stroke-width: 2; stroke-linecap: round"/>
     </g>
     <g id="line2d_6">
      <g>
       <use xlink:href="#m3a02126dab" x="387.290854" y="737.764" style="fill: #262626; stroke: #262626; stroke-width: 2.5"/>
      </g>
     </g>
     <g id="text_3">
      <!-- NVIDIA -->
      <g style="fill: #262626" transform="translate(342.553166 772.160625) scale(0.264 -0.264)">
       <use xlink:href="#Arial-BoldMT-4e"/>
       <use xlink:href="#Arial-BoldMT-56" x="72.216797"/>
       <use xlink:href="#Arial-BoldMT-49" x="138.916016"/>
       <use xlink:href="#Arial-BoldMT-44" x="166.699219"/>
       <use xlink:href="#Arial-BoldMT-49" x="238.916016"/>
       <use xlink:href="#Arial-BoldMT-41" x="266.699219"/>
      </g>
      <!-- H100 -->
      <g style="fill: #262626" transform="translate(355.736666 800.04645) scale(0.264 -0.264)">
       <defs>
        <path id="Arial-BoldMT-48" d="M 469 0 
L 469 4581 
L 1394 4581 
L 1394 2778 
L 3206 2778 
L 3206 4581 
L 4131 4581 
L 4131 0 
L 3206 0 
L 3206 2003 
L 1394 2003 
L 1394 0 
L 469 0 
z
" transform="scale(0.015625)"/>
       </defs>
       <use xlink:href="#Arial-BoldMT-48"/>
       <use xlink:href="#Arial-BoldMT-31" x="72.216797"/>
       <use xlink:href="#Arial-BoldMT-30" x="127.832031"/>
       <use xlink:href="#Arial-BoldMT-30" x="183.447266"/>
      </g>
     </g>
    </g>
    <g id="xtick_4">
     <g id="line2d_7">
      <path d="M 505.198646 737.764 
L 505.198646 34.56 
" clip-path="url(#p3c9c0d63e3)" style="fill: none; stroke: #ffffff; stroke-width: 2; stroke-linecap: round"/>
     </g>
     <g id="line2d_8">
      <g>
       <use xlink:href="#m3a02126dab" x="505.198646" y="737.764" style="fill: #262626; stroke: #262626; stroke-width: 2.5"/>
      </g>
     </g>
     <g id="text_4">
      <!-- NVIDIA -->
      <g style="fill: #262626" transform="translate(460.460959 772.160625) scale(0.264 -0.264)">
       <use xlink:href="#Arial-BoldMT-4e"/>
       <use xlink:href="#Arial-BoldMT-56" x="72.216797"/>
       <use xlink:href="#Arial-BoldMT-49" x="138.916016"/>
       <use xlink:href="#Arial-BoldMT-44" x="166.699219"/>
       <use xlink:href="#Arial-BoldMT-49" x="238.916016"/>
       <use xlink:href="#Arial-BoldMT-41" x="266.699219"/>
      </g>
      <!-- GH200 -->
      <g style="fill: #262626" transform="translate(463.377334 800.04645) scale(0.264 -0.264)">
       <defs>
        <path id="Arial-BoldMT-47" d="M 2597 1684 
L 2597 2456 
L 4591 2456 
L 4591 631 
Q 4300 350 3748 136 
Q 3197 -78 2631 -78 
Q 1913 -78 1378 223 
Q 844 525 575 1086 
Q 306 1647 306 2306 
Q 306 3022 606 3578 
Q 906 4134 1484 4431 
Q 1925 4659 2581 4659 
Q 3434 4659 3914 4301 
Q 4394 3944 4531 3313 
L 3613 3141 
Q 3516 3478 3248 3673 
Q 2981 3869 2581 3869 
Q 1975 3869 1617 3484 
Q 1259 3100 1259 2344 
Q 1259 1528 1621 1120 
Q 1984 713 2572 713 
Q 2863 713 3155 827 
Q 3447 941 3656 1103 
L 3656 1684 
L 2597 1684 
z
" transform="scale(0.015625)"/>
        <path id="Arial-BoldMT-32" d="M 3238 816 
L 3238 0 
L 159 0 
Q 209 463 459 877 
Q 709 1291 1447 1975 
Q 2041 2528 2175 2725 
Q 2356 2997 2356 3263 
Q 2356 3556 2198 3714 
Q 2041 3872 1763 3872 
Q 1488 3872 1325 3706 
Q 1163 3541 1138 3156 
L 263 3244 
Q 341 3969 753 4284 
Q 1166 4600 1784 4600 
Q 2463 4600 2850 4234 
Q 3238 3869 3238 3325 
Q 3238 3016 3127 2736 
Q 3016 2456 2775 2150 
Q 2616 1947 2200 1565 
Q 1784 1184 1673 1059 
Q 1563 934 1494 816 
L 3238 816 
z
" transform="scale(0.015625)"/>
       </defs>
       <use xlink:href="#Arial-BoldMT-47"/>
       <use xlink:href="#Arial-BoldMT-48" x="77.783203"/>
       <use xlink:href="#Arial-BoldMT-32" x="150"/>
       <use xlink:href="#Arial-BoldMT-30" x="205.615234"/>
       <use xlink:href="#Arial-BoldMT-30" x="261.230469"/>
      </g>
     </g>
    </g>
    <g id="xtick_5">
     <g id="line2d_9">
      <path d="M 623.106438 737.764 
L 623.106438 34.56 
" clip-path="url(#p3c9c0d63e3)" style="fill: none; stroke: #ffffff; stroke-width: 2; stroke-linecap: round"/>
     </g>
     <g id="line2d_10">
      <g>
       <use xlink:href="#m3a02126dab" x="623.106438" y="737.764" style="fill: #262626; stroke: #262626; stroke-width: 2.5"/>
      </g>
     </g>
     <g id="text_5">
      <!-- AMD -->
      <g style="fill: #262626" transform="translate(593.045501 772.160625) scale(0.264 -0.264)">
       <defs>
        <path id="Arial-BoldMT-4d" d="M 453 0 
L 453 4581 
L 1838 4581 
L 2669 1456 
L 3491 4581 
L 4878 4581 
L 4878 0 
L 4019 0 
L 4019 3606 
L 3109 0 
L 2219 0 
L 1313 3606 
L 1313 0 
L 453 0 
z
" transform="scale(0.015625)"/>
       </defs>
       <use xlink:href="#Arial-BoldMT-41"/>
       <use xlink:href="#Arial-BoldMT-4d" x="72.216797"/>
       <use xlink:href="#Arial-BoldMT-44" x="155.517578"/>
      </g>
      <!-- MI250X -->
      <g style="fill: #262626" transform="translate(577.618001 800.04645) scale(0.264 -0.264)">
       <defs>
        <path id="Arial-BoldMT-35" d="M 284 1178 
L 1159 1269 
Q 1197 972 1381 798 
Q 1566 625 1806 625 
Q 2081 625 2272 848 
Q 2463 1072 2463 1522 
Q 2463 1944 2273 2155 
Q 2084 2366 1781 2366 
Q 1403 2366 1103 2031 
L 391 2134 
L 841 4519 
L 3163 4519 
L 3163 3697 
L 1506 3697 
L 1369 2919 
Q 1663 3066 1969 3066 
Q 2553 3066 2959 2641 
Q 3366 2216 3366 1538 
Q 3366 972 3038 528 
Q 2591 -78 1797 -78 
Q 1163 -78 763 262 
Q 363 603 284 1178 
z
" transform="scale(0.015625)"/>
        <path id="Arial-BoldMT-58" d="M 0 0 
L 1566 2391 
L 147 4581 
L 1228 4581 
L 2147 3109 
L 3047 4581 
L 4119 4581 
L 2694 2356 
L 4259 0 
L 3144 0 
L 2128 1584 
L 1109 0 
L 0 0 
z
" transform="scale(0.015625)"/>
       </defs>
       <use xlink:href="#Arial-BoldMT-4d"/>
       <use xlink:href="#Arial-BoldMT-49" x="83.300781"/>
       <use xlink:href="#Arial-BoldMT-32" x="111.083984"/>
       <use xlink:href="#Arial-BoldMT-35" x="166.699219"/>
       <use xlink:href="#Arial-BoldMT-30" x="222.314453"/>
       <use xlink:href="#Arial-BoldMT-58" x="277.929688"/>
      </g>
     </g>
    </g>
    <g id="xtick_6">
     <g id="line2d_11">
      <path d="M 741.014231 737.764 
L 741.014231 34.56 
" clip-path="url(#p3c9c0d63e3)" style="fill: none; stroke: #ffffff; stroke-width: 2; stroke-linecap: round"/>
     </g>
     <g id="line2d_12">
      <g>
       <use xlink:href="#m3a02126dab" x="741.014231" y="737.764" style="fill: #262626; stroke: #262626; stroke-width: 2.5"/>
      </g>
     </g>
     <g id="text_6">
      <!-- AMD -->
      <g style="fill: #262626" transform="translate(710.953293 772.160625) scale(0.264 -0.264)">
       <use xlink:href="#Arial-BoldMT-41"/>
       <use xlink:href="#Arial-BoldMT-4d" x="72.216797"/>
       <use xlink:href="#Arial-BoldMT-44" x="155.517578"/>
      </g>
      <!-- MI300X -->
      <g style="fill: #262626" transform="translate(695.525793 800.04645) scale(0.264 -0.264)">
       <defs>
        <path id="Arial-BoldMT-33" d="M 241 1216 
L 1091 1319 
Q 1131 994 1309 822 
Q 1488 650 1741 650 
Q 2013 650 2198 856 
Q 2384 1063 2384 1413 
Q 2384 1744 2206 1937 
Q 2028 2131 1772 2131 
Q 1603 2131 1369 2066 
L 1466 2781 
Q 1822 2772 2009 2936 
Q 2197 3100 2197 3372 
Q 2197 3603 2059 3740 
Q 1922 3878 1694 3878 
Q 1469 3878 1309 3722 
Q 1150 3566 1116 3266 
L 306 3403 
Q 391 3819 561 4067 
Q 731 4316 1036 4458 
Q 1341 4600 1719 4600 
Q 2366 4600 2756 4188 
Q 3078 3850 3078 3425 
Q 3078 2822 2419 2463 
Q 2813 2378 3048 2084 
Q 3284 1791 3284 1375 
Q 3284 772 2843 347 
Q 2403 -78 1747 -78 
Q 1125 -78 715 280 
Q 306 638 241 1216 
z
" transform="scale(0.015625)"/>
       </defs>
       <use xlink:href="#Arial-BoldMT-4d"/>
       <use xlink:href="#Arial-BoldMT-49" x="83.300781"/>
       <use xlink:href="#Arial-BoldMT-33" x="111.083984"/>
       <use xlink:href="#Arial-BoldMT-30" x="166.699219"/>
       <use xlink:href="#Arial-BoldMT-30" x="222.314453"/>
       <use xlink:href="#Arial-BoldMT-58" x="277.929688"/>
      </g>
     </g>
    </g>
   </g>
   <g id="matplotlib.axis_2">
    <g id="ytick_1">
     <g id="line2d_13">
      <path d="M 83.08875 737.764 
L 809.40075 737.764 
" clip-path="url(#p3c9c0d63e3)" style="fill: none; stroke: #ffffff; stroke-width: 2; stroke-linecap: round"/>
     </g>
     <g id="line2d_14">
      <defs>
       <path id="mf4f8f5a6cd" d="M 0 0 
L -12 0 
" style="stroke: #262626; stroke-width: 2.5"/>
      </defs>
      <g>
       <use xlink:href="#mf4f8f5a6cd" x="83.08875" y="737.764" style="fill: #262626; stroke: #262626; stroke-width: 2.5"/>
      </g>
     </g>
     <g id="text_7">
      <!-- 0 -->
      <g style="fill: #262626" transform="translate(52.907875 747.212312) scale(0.264 -0.264)">
       <use xlink:href="#Arial-BoldMT-30"/>
      </g>
     </g>
    </g>
    <g id="ytick_2">
     <g id="line2d_15">
      <path d="M 83.08875 634.444331 
L 809.40075 634.444331 
" clip-path="url(#p3c9c0d63e3)" style="fill: none; stroke: #ffffff; stroke-width: 2; stroke-linecap: round"/>
     </g>
     <g id="line2d_16">
      <g>
       <use xlink:href="#mf4f8f5a6cd" x="83.08875" y="634.444331" style="fill: #262626; stroke: #262626; stroke-width: 2.5"/>
      </g>
     </g>
     <g id="text_8">
      <!-- 2 -->
      <g style="fill: #262626" transform="translate(52.907875 643.892643) scale(0.264 -0.264)">
       <use xlink:href="#Arial-BoldMT-32"/>
      </g>
     </g>
    </g>
    <g id="ytick_3">
     <g id="line2d_17">
      <path d="M 83.08875 531.124662 
L 809.40075 531.124662 
" clip-path="url(#p3c9c0d63e3)" style="fill: none; stroke: #ffffff; stroke-width: 2; stroke-linecap: round"/>
     </g>
     <g id="line2d_18">
      <g>
       <use xlink:href="#mf4f8f5a6cd" x="83.08875" y="531.124662" style="fill: #262626; stroke: #262626; stroke-width: 2.5"/>
      </g>
     </g>
     <g id="text_9">
      <!-- 4 -->
      <g style="fill: #262626" transform="translate(52.907875 540.572974) scale(0.264 -0.264)">
       <defs>
        <path id="Arial-BoldMT-34" d="M 1994 0 
L 1994 922 
L 119 922 
L 119 1691 
L 2106 4600 
L 2844 4600 
L 2844 1694 
L 3413 1694 
L 3413 922 
L 2844 922 
L 2844 0 
L 1994 0 
z
M 1994 1694 
L 1994 3259 
L 941 1694 
L 1994 1694 
z
" transform="scale(0.015625)"/>
       </defs>
       <use xlink:href="#Arial-BoldMT-34"/>
      </g>
     </g>
    </g>
    <g id="ytick_4">
     <g id="line2d_19">
      <path d="M 83.08875 427.804993 
L 809.40075 427.804993 
" clip-path="url(#p3c9c0d63e3)" style="fill: none; stroke: #ffffff; stroke-width: 2; stroke-linecap: round"/>
     </g>
     <g id="line2d_20">
      <g>
       <use xlink:href="#mf4f8f5a6cd" x="83.08875" y="427.804993" style="fill: #262626; stroke: #262626; stroke-width: 2.5"/>
      </g>
     </g>
     <g id="text_10">
      <!-- 6 -->
      <g style="fill: #262626" transform="translate(52.907875 437.253305) scale(0.264 -0.264)">
       <defs>
        <path id="Arial-BoldMT-36" d="M 3247 3459 
L 2397 3366 
Q 2366 3628 2234 3753 
Q 2103 3878 1894 3878 
Q 1616 3878 1423 3628 
Q 1231 3378 1181 2588 
Q 1509 2975 1997 2975 
Q 2547 2975 2939 2556 
Q 3331 2138 3331 1475 
Q 3331 772 2918 347 
Q 2506 -78 1859 -78 
Q 1166 -78 719 461 
Q 272 1000 272 2228 
Q 272 3488 737 4044 
Q 1203 4600 1947 4600 
Q 2469 4600 2811 4308 
Q 3153 4016 3247 3459 
z
M 1256 1544 
Q 1256 1116 1453 883 
Q 1650 650 1903 650 
Q 2147 650 2309 840 
Q 2472 1031 2472 1466 
Q 2472 1913 2297 2120 
Q 2122 2328 1859 2328 
Q 1606 2328 1431 2129 
Q 1256 1931 1256 1544 
z
" transform="scale(0.015625)"/>
       </defs>
       <use xlink:href="#Arial-BoldMT-36"/>
      </g>
     </g>
    </g>
    <g id="ytick_5">
     <g id="line2d_21">
      <path d="M 83.08875 324.485324 
L 809.40075 324.485324 
" clip-path="url(#p3c9c0d63e3)" style="fill: none; stroke: #ffffff; stroke-width: 2; stroke-linecap: round"/>
     </g>
     <g id="line2d_22">
      <g>
       <use xlink:href="#mf4f8f5a6cd" x="83.08875" y="324.485324" style="fill: #262626; stroke: #262626; stroke-width: 2.5"/>
      </g>
     </g>
     <g id="text_11">
      <!-- 8 -->
      <g style="fill: #262626" transform="translate(52.907875 333.933636) scale(0.264 -0.264)">
       <defs>
        <path id="Arial-BoldMT-38" d="M 1025 2472 
Q 684 2616 529 2867 
Q 375 3119 375 3419 
Q 375 3931 733 4265 
Q 1091 4600 1750 4600 
Q 2403 4600 2764 4265 
Q 3125 3931 3125 3419 
Q 3125 3100 2959 2851 
Q 2794 2603 2494 2472 
Q 2875 2319 3073 2025 
Q 3272 1731 3272 1347 
Q 3272 713 2867 316 
Q 2463 -81 1791 -81 
Q 1166 -81 750 247 
Q 259 634 259 1309 
Q 259 1681 443 1992 
Q 628 2303 1025 2472 
z
M 1206 3356 
Q 1206 3094 1354 2947 
Q 1503 2800 1750 2800 
Q 2000 2800 2150 2948 
Q 2300 3097 2300 3359 
Q 2300 3606 2151 3754 
Q 2003 3903 1759 3903 
Q 1506 3903 1356 3753 
Q 1206 3603 1206 3356 
z
M 1125 1394 
Q 1125 1031 1311 828 
Q 1497 625 1775 625 
Q 2047 625 2225 820 
Q 2403 1016 2403 1384 
Q 2403 1706 2222 1901 
Q 2041 2097 1763 2097 
Q 1441 2097 1283 1875 
Q 1125 1653 1125 1394 
z
" transform="scale(0.015625)"/>
       </defs>
       <use xlink:href="#Arial-BoldMT-38"/>
      </g>
     </g>
    </g>
    <g id="ytick_6">
     <g id="line2d_23">
      <path d="M 83.08875 221.165654 
L 809.40075 221.165654 
" clip-path="url(#p3c9c0d63e3)" style="fill: none; stroke: #ffffff; stroke-width: 2; stroke-linecap: round"/>
     </g>
     <g id="line2d_24">
      <g>
       <use xlink:href="#mf4f8f5a6cd" x="83.08875" y="221.165654" style="fill: #262626; stroke: #262626; stroke-width: 2.5"/>
      </g>
     </g>
     <g id="text_12">
      <!-- 10 -->
      <g style="fill: #262626" transform="translate(38.227 230.613967) scale(0.264 -0.264)">
       <use xlink:href="#Arial-BoldMT-31"/>
       <use xlink:href="#Arial-BoldMT-30" x="55.615234"/>
      </g>
     </g>
    </g>
    <g id="ytick_7">
     <g id="line2d_25">
      <path d="M 83.08875 117.845985 
L 809.40075 117.845985 
" clip-path="url(#p3c9c0d63e3)" style="fill: none; stroke: #ffffff; stroke-width: 2; stroke-linecap: round"/>
     </g>
     <g id="line2d_26">
      <g>
       <use xlink:href="#mf4f8f5a6cd" x="83.08875" y="117.845985" style="fill: #262626; stroke: #262626; stroke-width: 2.5"/>
      </g>
     </g>
     <g id="text_13">
      <!-- 12 -->
      <g style="fill: #262626" transform="translate(38.227 127.294298) scale(0.264 -0.264)">
       <use xlink:href="#Arial-BoldMT-31"/>
       <use xlink:href="#Arial-BoldMT-32" x="55.615234"/>
      </g>
     </g>
    </g>
    <g id="ytick_8">
     <g id="line2d_27">
      <defs>
       <path id="m4491aeb7e3" d="M 0 0 
L -8 0 
" style="stroke: #262626; stroke-width: 2"/>
      </defs>
      <g>
       <use xlink:href="#m4491aeb7e3" x="83.08875" y="711.934083" style="fill: #262626; stroke: #262626; stroke-width: 2"/>
      </g>
     </g>
    </g>
    <g id="ytick_9">
     <g id="line2d_28">
      <g>
       <use xlink:href="#m4491aeb7e3" x="83.08875" y="686.104165" style="fill: #262626; stroke: #262626; stroke-width: 2"/>
      </g>
     </g>
    </g>
    <g id="ytick_10">
     <g id="line2d_29">
      <g>
       <use xlink:href="#m4491aeb7e3" x="83.08875" y="660.274248" style="fill: #262626; stroke: #262626; stroke-width: 2"/>
      </g>
     </g>
    </g>
    <g id="ytick_11">
     <g id="line2d_30">
      <g>
       <use xlink:href="#m4491aeb7e3" x="83.08875" y="608.614414" style="fill: #262626; stroke: #262626; stroke-width: 2"/>
      </g>
     </g>
    </g>
    <g id="ytick_12">
     <g id="line2d_31">
      <g>
       <use xlink:href="#m4491aeb7e3" x="83.08875" y="582.784496" style="fill: #262626; stroke: #262626; stroke-width: 2"/>
      </g>
     </g>
    </g>
    <g id="ytick_13">
     <g id="line2d_32">
      <g>
       <use xlink:href="#m4491aeb7e3" x="83.08875" y="556.954579" style="fill: #262626; stroke: #262626; stroke-width: 2"/>
      </g>
     </g>
    </g>
    <g id="ytick_14">
     <g id="line2d_33">
      <g>
       <use xlink:href="#m4491aeb7e3" x="83.08875" y="505.294744" style="fill: #262626; stroke: #262626; stroke-width: 2"/>
      </g>
     </g>
    </g>
    <g id="ytick_15">
     <g id="line2d_34">
      <g>
       <use xlink:href="#m4491aeb7e3" x="83.08875" y="479.464827" style="fill: #262626; stroke: #262626; stroke-width: 2"/>
      </g>
     </g>
    </g>
    <g id="ytick_16">
     <g id="line2d_35">
      <g>
       <use xlink:href="#m4491aeb7e3" x="83.08875" y="453.63491" style="fill: #262626; stroke: #262626; stroke-width: 2"/>
      </g>
     </g>
    </g>
    <g id="ytick_17">
     <g id="line2d_36">
      <g>
       <use xlink:href="#m4491aeb7e3" x="83.08875" y="401.975075" style="fill: #262626; stroke: #262626; stroke-width: 2"/>
      </g>
     </g>
    </g>
    <g id="ytick_18">
     <g id="line2d_37">
      <g>
       <use xlink:href="#m4491aeb7e3" x="83.08875" y="376.145158" style="fill: #262626; stroke: #262626; stroke-width: 2"/>
      </g>
     </g>
    </g>
    <g id="ytick_19">
     <g id="line2d_38">
      <g>
       <use xlink:href="#m4491aeb7e3" x="83.08875" y="350.315241" style="fill: #262626; stroke: #262626; stroke-width: 2"/>
      </g>
     </g>
    </g>
    <g id="ytick_20">
     <g id="line2d_39">
      <g>
       <use xlink:href="#m4491aeb7e3" x="83.08875" y="298.655406" style="fill: #262626; stroke: #262626; stroke-width: 2"/>
      </g>
     </g>
    </g>
    <g id="ytick_21">
     <g id="line2d_40">
      <g>
       <use xlink:href="#m4491aeb7e3" x="83.08875" y="272.825489" style="fill: #262626; stroke: #262626; stroke-width: 2"/>
      </g>
     </g>
    </g>
    <g id="ytick_22">
     <g id="line2d_41">
      <g>
       <use xlink:href="#m4491aeb7e3" x="83.08875" y="246.995572" style="fill: #262626; stroke: #262626; stroke-width: 2"/>
      </g>
     </g>
    </g>
    <g id="ytick_23">
     <g id="line2d_42">
      <g>
       <use xlink:href="#m4491aeb7e3" x="83.08875" y="195.335737" style="fill: #262626; stroke: #262626; stroke-width: 2"/>
      </g>
     </g>
    </g>
    <g id="ytick_24">
     <g id="line2d_43">
      <g>
       <use xlink:href="#m4491aeb7e3" x="83.08875" y="169.50582" style="fill: #262626; stroke: #262626; stroke-width: 2"/>
      </g>
     </g>
    </g>
    <g id="ytick_25">
     <g id="line2d_44">
      <g>
       <use xlink:href="#m4491aeb7e3" x="83.08875" y="143.675903" style="fill: #262626; stroke: #262626; stroke-width: 2"/>
      </g>
     </g>
    </g>
    <g id="ytick_26">
     <g id="line2d_45">
      <g>
       <use xlink:href="#m4491aeb7e3" x="83.08875" y="92.016068" style="fill: #262626; stroke: #262626; stroke-width: 2"/>
      </g>
     </g>
    </g>
    <g id="ytick_27">
     <g id="line2d_46">
      <g>
       <use xlink:href="#m4491aeb7e3" x="83.08875" y="66.186151" style="fill: #262626; stroke: #262626; stroke-width: 2"/>
      </g>
     </g>
    </g>
    <g id="ytick_28">
     <g id="line2d_47">
      <g>
       <use xlink:href="#m4491aeb7e3" x="83.08875" y="40.356233" style="fill: #262626; stroke: #262626; stroke-width: 2"/>
      </g>
     </g>
    </g>
    <g id="text_14">
     <!-- Time (ms) -->
     <g style="fill: #262626" transform="translate(28.1655 453.92075) rotate(-90) scale(0.288 -0.288)">
      <defs>
       <path id="Arial-BoldMT-54" d="M 1497 0 
L 1497 3806 
L 138 3806 
L 138 4581 
L 3778 4581 
L 3778 3806 
L 2422 3806 
L 2422 0 
L 1497 0 
z
" transform="scale(0.015625)"/>
       <path id="Arial-BoldMT-69" d="M 459 3769 
L 459 4581 
L 1338 4581 
L 1338 3769 
L 459 3769 
z
M 459 0 
L 459 3319 
L 1338 3319 
L 1338 0 
L 459 0 
z
" transform="scale(0.015625)"/>
       <path id="Arial-BoldMT-6d" d="M 394 3319 
L 1203 3319 
L 1203 2866 
Q 1638 3394 2238 3394 
Q 2556 3394 2790 3262 
Q 3025 3131 3175 2866 
Q 3394 3131 3647 3262 
Q 3900 3394 4188 3394 
Q 4553 3394 4806 3245 
Q 5059 3097 5184 2809 
Q 5275 2597 5275 2122 
L 5275 0 
L 4397 0 
L 4397 1897 
Q 4397 2391 4306 2534 
Q 4184 2722 3931 2722 
Q 3747 2722 3584 2609 
Q 3422 2497 3350 2280 
Q 3278 2063 3278 1594 
L 3278 0 
L 2400 0 
L 2400 1819 
Q 2400 2303 2353 2443 
Q 2306 2584 2207 2653 
Q 2109 2722 1941 2722 
Q 1738 2722 1575 2612 
Q 1413 2503 1342 2297 
Q 1272 2091 1272 1613 
L 1272 0 
L 394 0 
L 394 3319 
z
" transform="scale(0.015625)"/>
       <path id="Arial-BoldMT-20" transform="scale(0.015625)"/>
       <path id="Arial-BoldMT-28" d="M 1916 -1347 
L 1313 -1347 
Q 834 -625 584 153 
Q 334 931 334 1659 
Q 334 2563 644 3369 
Q 913 4069 1325 4659 
L 1925 4659 
Q 1497 3713 1336 3048 
Q 1175 2384 1175 1641 
Q 1175 1128 1270 590 
Q 1366 53 1531 -431 
Q 1641 -750 1916 -1347 
z
" transform="scale(0.015625)"/>
       <path id="Arial-BoldMT-73" d="M 150 947 
L 1031 1081 
Q 1088 825 1259 692 
Q 1431 559 1741 559 
Q 2081 559 2253 684 
Q 2369 772 2369 919 
Q 2369 1019 2306 1084 
Q 2241 1147 2013 1200 
Q 950 1434 666 1628 
Q 272 1897 272 2375 
Q 272 2806 612 3100 
Q 953 3394 1669 3394 
Q 2350 3394 2681 3172 
Q 3013 2950 3138 2516 
L 2309 2363 
Q 2256 2556 2107 2659 
Q 1959 2763 1684 2763 
Q 1338 2763 1188 2666 
Q 1088 2597 1088 2488 
Q 1088 2394 1175 2328 
Q 1294 2241 1995 2081 
Q 2697 1922 2975 1691 
Q 3250 1456 3250 1038 
Q 3250 581 2869 253 
Q 2488 -75 1741 -75 
Q 1063 -75 667 200 
Q 272 475 150 947 
z
" transform="scale(0.015625)"/>
       <path id="Arial-BoldMT-29" d="M 216 -1347 
Q 475 -791 581 -494 
Q 688 -197 778 190 
Q 869 578 912 926 
Q 956 1275 956 1641 
Q 956 2384 797 3048 
Q 638 3713 209 4659 
L 806 4659 
Q 1278 3988 1539 3234 
Q 1800 2481 1800 1706 
Q 1800 1053 1594 306 
Q 1359 -531 822 -1347 
L 216 -1347 
z
" transform="scale(0.015625)"/>
      </defs>
      <use xlink:href="#Arial-BoldMT-54"/>
      <use xlink:href="#Arial-BoldMT-69" x="59.333984"/>
      <use xlink:href="#Arial-BoldMT-6d" x="87.117188"/>
      <use xlink:href="#Arial-BoldMT-65" x="176.033203"/>
      <use xlink:href="#Arial-BoldMT-20" x="231.648438"/>
      <use xlink:href="#Arial-BoldMT-28" x="259.431641"/>
      <use xlink:href="#Arial-BoldMT-6d" x="292.732422"/>
      <use xlink:href="#Arial-BoldMT-73" x="381.648438"/>
      <use xlink:href="#Arial-BoldMT-29" x="437.263672"/>
     </g>
    </g>
   </g>
   <g id="patch_3">
    <path d="M 116.102932 737.764 
L 186.847607 737.764 
L 186.847607 733.9825 
L 116.102932 733.9825 
z
" clip-path="url(#p3c9c0d63e3)" style="fill: #c1a968"/>
   </g>
   <g id="patch_4">
    <path d="M 234.010724 737.764 
L 304.755399 737.764 
L 304.755399 733.755197 
L 234.010724 733.755197 
z
" clip-path="url(#p3c9c0d63e3)" style="fill: #c1a968"/>
   </g>
   <g id="patch_5">
    <path d="M 351.918516 737.764 
L 422.663192 737.764 
L 422.663192 734.116816 
L 351.918516 734.116816 
z
" clip-path="url(#p3c9c0d63e3)" style="fill: #c1a968"/>
   </g>
   <g id="patch_6">
    <path d="M 469.826308 737.764 
L 540.570984 737.764 
L 540.570984 735.666611 
L 469.826308 735.666611 
z
" clip-path="url(#p3c9c0d63e3)" style="fill: #c1a968"/>
   </g>
   <g id="patch_7">
    <path d="M 587.734101 737.764 
L 658.478776 737.764 
L 658.478776 732.866648 
L 587.734101 732.866648 
z
" clip-path="url(#p3c9c0d63e3)" style="fill: #c1a968"/>
   </g>
   <g id="patch_8">
    <path d="M 705.641893 737.764 
L 776.386568 737.764 
L 776.386568 735.759598 
L 705.641893 735.759598 
z
" clip-path="url(#p3c9c0d63e3)" style="fill: #c1a968"/>
   </g>
   <g id="patch_9">
    <path d="M 116.102932 733.9825 
L 186.847607 733.9825 
L 186.847607 725.086677 
L 116.102932 725.086677 
z
" clip-path="url(#p3c9c0d63e3)" style="fill: #007c97"/>
   </g>
   <g id="patch_10">
    <path d="M 234.010724 733.755197 
L 304.755399 733.755197 
L 304.755399 719.321439 
L 234.010724 719.321439 
z
" clip-path="url(#p3c9c0d63e3)" style="fill: #007c97"/>
   </g>
   <g id="patch_11">
    <path d="M 351.918516 734.116816 
L 422.663192 734.116816 
L 422.663192 723.102939 
L 351.918516 723.102939 
z
" clip-path="url(#p3c9c0d63e3)" style="fill: #007c97"/>
   </g>
   <g id="patch_12">
    <path d="M 469.826308 735.666611 
L 540.570984 735.666611 
L 540.570984 729.72573 
L 469.826308 729.72573 
z
" clip-path="url(#p3c9c0d63e3)" style="fill: #007c97"/>
   </g>
   <g id="patch_13">
    <path d="M 587.734101 732.866648 
L 658.478776 732.866648 
L 658.478776 715.240312 
L 587.734101 715.240312 
z
" clip-path="url(#p3c9c0d63e3)" style="fill: #007c97"/>
   </g>
   <g id="patch_14">
    <path d="M 705.641893 735.759598 
L 776.386568 735.759598 
L 776.386568 730.159672 
L 705.641893 730.159672 
z
" clip-path="url(#p3c9c0d63e3)" style="fill: #007c97"/>
   </g>
   <g id="patch_15">
    <path d="M 116.102932 725.086677 
L 186.847607 725.086677 
L 186.847607 70.711552 
L 116.102932 70.711552 
z
" clip-path="url(#p3c9c0d63e3)" style="fill: #ed1c24"/>
   </g>
   <g id="patch_16">
    <path d="M 234.010724 719.321439 
L 304.755399 719.321439 
L 304.755399 337.710241 
L 234.010724 337.710241 
z
" clip-path="url(#p3c9c0d63e3)" style="fill: #ed1c24"/>
   </g>
   <g id="patch_17">
    <path d="M 351.918516 723.102939 
L 422.663192 723.102939 
L 422.663192 460.577992 
L 351.918516 460.577992 
z
" clip-path="url(#p3c9c0d63e3)" style="fill: #ed1c24"/>
   </g>
   <g id="patch_18">
    <path d="M 469.826308 729.72573 
L 540.570984 729.72573 
L 540.570984 589.169652 
L 469.826308 589.169652 
z
" clip-path="url(#p3c9c0d63e3)" style="fill: #ed1c24"/>
   </g>
   <g id="patch_19">
    <path d="M 587.734101 715.240312 
L 658.478776 715.240312 
L 658.478776 259.032313 
L 587.734101 259.032313 
z
" clip-path="url(#p3c9c0d63e3)" style="fill: #ed1c24"/>
   </g>
   <g id="patch_20">
    <path d="M 705.641893 730.159672 
L 776.386568 730.159672 
L 776.386568 563.505046 
L 705.641893 563.505046 
z
" clip-path="url(#p3c9c0d63e3)" style="fill: #ed1c24"/>
   </g>
   <g id="patch_21">
    <path d="M 116.102932 70.711552 
L 186.847607 70.711552 
L 186.847607 68.831134 
L 116.102932 68.831134 
z
" clip-path="url(#p3c9c0d63e3)" style="fill: #f26522"/>
   </g>
   <g id="patch_22">
    <path d="M 234.010724 337.710241 
L 304.755399 337.710241 
L 304.755399 336.728704 
L 234.010724 336.728704 
z
" clip-path="url(#p3c9c0d63e3)" style="fill: #f26522"/>
   </g>
   <g id="patch_23">
    <path d="M 351.918516 460.577992 
L 422.663192 460.577992 
L 422.663192 459.699774 
L 351.918516 459.699774 
z
" clip-path="url(#p3c9c0d63e3)" style="fill: #f26522"/>
   </g>
   <g id="patch_24">
    <path d="M 469.826308 589.169652 
L 540.570984 589.169652 
L 540.570984 588.343095 
L 469.826308 588.343095 
z
" clip-path="url(#p3c9c0d63e3)" style="fill: #f26522"/>
   </g>
   <g id="patch_25">
    <path d="M 587.734101 259.032313 
L 658.478776 259.032313 
L 658.478776 256.201354 
L 587.734101 256.201354 
z
" clip-path="url(#p3c9c0d63e3)" style="fill: #f26522"/>
   </g>
   <g id="patch_26">
    <path d="M 705.641893 563.505046 
L 776.386568 563.505046 
L 776.386568 561.727948 
L 705.641893 561.727948 
z
" clip-path="url(#p3c9c0d63e3)" style="fill: #f26522"/>
   </g>
   <g id="patch_27">
    <path d="M 116.102932 68.831134 
L 186.847607 68.831134 
L 186.847607 68.045905 
L 116.102932 68.045905 
z
" clip-path="url(#p3c9c0d63e3)" style="fill: #6e6e6e"/>
   </g>
   <g id="patch_28">
    <path d="M 234.010724 336.728704 
L 304.755399 336.728704 
L 304.755399 336.263766 
L 234.010724 336.263766 
z
" clip-path="url(#p3c9c0d63e3)" style="fill: #6e6e6e"/>
   </g>
   <g id="patch_29">
    <path d="M 351.918516 459.699774 
L 422.663192 459.699774 
L 422.663192 459.286496 
L 351.918516 459.286496 
z
" clip-path="url(#p3c9c0d63e3)" style="fill: #6e6e6e"/>
   </g>
   <g id="patch_30">
    <path d="M 469.826308 588.343095 
L 540.570984 588.343095 
L 540.570984 587.878156 
L 469.826308 587.878156 
z
" clip-path="url(#p3c9c0d63e3)" style="fill: #6e6e6e"/>
   </g>
   <g id="patch_31">
    <path d="M 587.734101 256.201354 
L 658.478776 256.201354 
L 658.478776 254.775543 
L 587.734101 254.775543 
z
" clip-path="url(#p3c9c0d63e3)" style="fill: #6e6e6e"/>
   </g>
   <g id="patch_32">
    <path d="M 705.641893 561.727948 
L 776.386568 561.727948 
L 776.386568 560.591431 
L 705.641893 560.591431 
z
" clip-path="url(#p3c9c0d63e3)" style="fill: #6e6e6e"/>
   </g>
   <g id="patch_33">
    <path d="M 83.08875 737.764 
L 83.08875 34.56 
" style="fill: none; stroke: #262626; stroke-width: 2.5; stroke-linejoin: miter; stroke-linecap: square"/>
   </g>
   <g id="patch_34">
    <path d="M 809.40075 737.764 
L 809.40075 34.56 
" style="fill: none; stroke: #262626; stroke-width: 2.5; stroke-linejoin: miter; stroke-linecap: square"/>
   </g>
   <g id="patch_35">
    <path d="M 83.08875 737.764 
L 809.40075 737.764 
" style="fill: none; stroke: #262626; stroke-width: 2.5; stroke-linejoin: miter; stroke-linecap: square"/>
   </g>
   <g id="patch_36">
    <path d="M 83.08875 34.56 
L 809.40075 34.56 
" style="fill: none; stroke: #262626; stroke-width: 2.5; stroke-linejoin: miter; stroke-linecap: square"/>
   </g>
   <g id="text_15">
    <!-- Single-GPU $\mathbf{F}$ Matvec Performance Comparison -->
    <g style="fill: #262626" transform="translate(120.22875 28.224) scale(0.288 -0.288)">
     <defs>
      <path id="Arial-BoldMT-53" d="M 231 1491 
L 1131 1578 
Q 1213 1125 1461 912 
Q 1709 700 2131 700 
Q 2578 700 2804 889 
Q 3031 1078 3031 1331 
Q 3031 1494 2936 1608 
Q 2841 1722 2603 1806 
Q 2441 1863 1863 2006 
Q 1119 2191 819 2459 
Q 397 2838 397 3381 
Q 397 3731 595 4036 
Q 794 4341 1167 4500 
Q 1541 4659 2069 4659 
Q 2931 4659 3367 4281 
Q 3803 3903 3825 3272 
L 2900 3231 
Q 2841 3584 2645 3739 
Q 2450 3894 2059 3894 
Q 1656 3894 1428 3728 
Q 1281 3622 1281 3444 
Q 1281 3281 1419 3166 
Q 1594 3019 2269 2859 
Q 2944 2700 3267 2529 
Q 3591 2359 3773 2064 
Q 3956 1769 3956 1334 
Q 3956 941 3737 597 
Q 3519 253 3119 86 
Q 2719 -81 2122 -81 
Q 1253 -81 787 320 
Q 322 722 231 1491 
z
" transform="scale(0.015625)"/>
      <path id="Arial-BoldMT-67" d="M 378 -219 
L 1381 -341 
Q 1406 -516 1497 -581 
Q 1622 -675 1891 -675 
Q 2234 -675 2406 -572 
Q 2522 -503 2581 -350 
Q 2622 -241 2622 53 
L 2622 538 
Q 2228 0 1628 0 
Q 959 0 569 566 
Q 263 1013 263 1678 
Q 263 2513 664 2953 
Q 1066 3394 1663 3394 
Q 2278 3394 2678 2853 
L 2678 3319 
L 3500 3319 
L 3500 341 
Q 3500 -247 3403 -537 
Q 3306 -828 3131 -993 
Q 2956 -1159 2664 -1253 
Q 2372 -1347 1925 -1347 
Q 1081 -1347 728 -1058 
Q 375 -769 375 -325 
Q 375 -281 378 -219 
z
M 1163 1728 
Q 1163 1200 1367 954 
Q 1572 709 1872 709 
Q 2194 709 2416 961 
Q 2638 1213 2638 1706 
Q 2638 2222 2425 2472 
Q 2213 2722 1888 2722 
Q 1572 2722 1367 2476 
Q 1163 2231 1163 1728 
z
" transform="scale(0.015625)"/>
      <path id="Arial-BoldMT-2d" d="M 359 1222 
L 359 2100 
L 2084 2100 
L 2084 1222 
L 359 1222 
z
" transform="scale(0.015625)"/>
      <path id="Arial-BoldMT-55" d="M 459 4581 
L 1384 4581 
L 1384 2100 
Q 1384 1509 1419 1334 
Q 1478 1053 1701 883 
Q 1925 713 2313 713 
Q 2706 713 2906 873 
Q 3106 1034 3147 1268 
Q 3188 1503 3188 2047 
L 3188 4581 
L 4113 4581 
L 4113 2175 
Q 4113 1350 4038 1009 
Q 3963 669 3761 434 
Q 3559 200 3221 61 
Q 2884 -78 2341 -78 
Q 1684 -78 1345 73 
Q 1006 225 809 467 
Q 613 709 550 975 
Q 459 1369 459 2138 
L 459 4581 
z
" transform="scale(0.015625)"/>
      <path id="DejaVuSans-Bold-46" d="M 588 4666 
L 3834 4666 
L 3834 3756 
L 1791 3756 
L 1791 2888 
L 3713 2888 
L 3713 1978 
L 1791 1978 
L 1791 0 
L 588 0 
L 588 4666 
z
" transform="scale(0.015625)"/>
      <path id="Arial-BoldMT-61" d="M 1116 2306 
L 319 2450 
Q 453 2931 781 3162 
Q 1109 3394 1756 3394 
Q 2344 3394 2631 3255 
Q 2919 3116 3036 2902 
Q 3153 2688 3153 2116 
L 3144 1091 
Q 3144 653 3186 445 
Q 3228 238 3344 0 
L 2475 0 
Q 2441 88 2391 259 
Q 2369 338 2359 363 
Q 2134 144 1878 34 
Q 1622 -75 1331 -75 
Q 819 -75 523 203 
Q 228 481 228 906 
Q 228 1188 362 1408 
Q 497 1628 739 1745 
Q 981 1863 1438 1950 
Q 2053 2066 2291 2166 
L 2291 2253 
Q 2291 2506 2166 2614 
Q 2041 2722 1694 2722 
Q 1459 2722 1328 2630 
Q 1197 2538 1116 2306 
z
M 2291 1594 
Q 2122 1538 1756 1459 
Q 1391 1381 1278 1306 
Q 1106 1184 1106 997 
Q 1106 813 1243 678 
Q 1381 544 1594 544 
Q 1831 544 2047 700 
Q 2206 819 2256 991 
Q 2291 1103 2291 1419 
L 2291 1594 
z
" transform="scale(0.015625)"/>
      <path id="Arial-BoldMT-76" d="M 1372 0 
L 34 3319 
L 956 3319 
L 1581 1625 
L 1763 1059 
Q 1834 1275 1853 1344 
Q 1897 1484 1947 1625 
L 2578 3319 
L 3481 3319 
L 2163 0 
L 1372 0 
z
" transform="scale(0.015625)"/>
      <path id="Arial-BoldMT-63" d="M 3353 2338 
L 2488 2181 
Q 2444 2441 2289 2572 
Q 2134 2703 1888 2703 
Q 1559 2703 1364 2476 
Q 1169 2250 1169 1719 
Q 1169 1128 1367 884 
Q 1566 641 1900 641 
Q 2150 641 2309 783 
Q 2469 925 2534 1272 
L 3397 1125 
Q 3263 531 2881 228 
Q 2500 -75 1859 -75 
Q 1131 -75 698 384 
Q 266 844 266 1656 
Q 266 2478 700 2936 
Q 1134 3394 1875 3394 
Q 2481 3394 2839 3133 
Q 3197 2872 3353 2338 
z
" transform="scale(0.015625)"/>
      <path id="Arial-BoldMT-72" d="M 1300 0 
L 422 0 
L 422 3319 
L 1238 3319 
L 1238 2847 
Q 1447 3181 1614 3287 
Q 1781 3394 1994 3394 
Q 2294 3394 2572 3228 
L 2300 2463 
Q 2078 2606 1888 2606 
Q 1703 2606 1575 2504 
Q 1447 2403 1373 2137 
Q 1300 1872 1300 1025 
L 1300 0 
z
" transform="scale(0.015625)"/>
      <path id="Arial-BoldMT-66" d="M 75 3319 
L 563 3319 
L 563 3569 
Q 563 3988 652 4194 
Q 741 4400 980 4529 
Q 1219 4659 1584 4659 
Q 1959 4659 2319 4547 
L 2200 3934 
Q 1991 3984 1797 3984 
Q 1606 3984 1523 3895 
Q 1441 3806 1441 3553 
L 1441 3319 
L 2097 3319 
L 2097 2628 
L 1441 2628 
L 1441 0 
L 563 0 
L 563 2628 
L 75 2628 
L 75 3319 
z
" transform="scale(0.015625)"/>
      <path id="Arial-BoldMT-6f" d="M 256 1706 
Q 256 2144 472 2553 
Q 688 2963 1083 3178 
Q 1478 3394 1966 3394 
Q 2719 3394 3200 2905 
Q 3681 2416 3681 1669 
Q 3681 916 3195 420 
Q 2709 -75 1972 -75 
Q 1516 -75 1102 131 
Q 688 338 472 736 
Q 256 1134 256 1706 
z
M 1156 1659 
Q 1156 1166 1390 903 
Q 1625 641 1969 641 
Q 2313 641 2545 903 
Q 2778 1166 2778 1666 
Q 2778 2153 2545 2415 
Q 2313 2678 1969 2678 
Q 1625 2678 1390 2415 
Q 1156 2153 1156 1659 
z
" transform="scale(0.015625)"/>
      <path id="Arial-BoldMT-70" d="M 434 3319 
L 1253 3319 
L 1253 2831 
Q 1413 3081 1684 3237 
Q 1956 3394 2288 3394 
Q 2866 3394 3269 2941 
Q 3672 2488 3672 1678 
Q 3672 847 3265 386 
Q 2859 -75 2281 -75 
Q 2006 -75 1782 34 
Q 1559 144 1313 409 
L 1313 -1263 
L 434 -1263 
L 434 3319 
z
M 1303 1716 
Q 1303 1156 1525 889 
Q 1747 622 2066 622 
Q 2372 622 2575 867 
Q 2778 1113 2778 1672 
Q 2778 2194 2568 2447 
Q 2359 2700 2050 2700 
Q 1728 2700 1515 2451 
Q 1303 2203 1303 1716 
z
" transform="scale(0.015625)"/>
     </defs>
     <use xlink:href="#Arial-BoldMT-53" transform="translate(0 0.09375)"/>
     <use xlink:href="#Arial-BoldMT-69" transform="translate(66.699219 0.09375)"/>
     <use xlink:href="#Arial-BoldMT-6e" transform="translate(94.482422 0.09375)"/>
     <use xlink:href="#Arial-BoldMT-67" transform="translate(155.566406 0.09375)"/>
     <use xlink:href="#Arial-BoldMT-6c" transform="translate(216.650391 0.09375)"/>
     <use xlink:href="#Arial-BoldMT-65" transform="translate(244.433594 0.09375)"/>
     <use xlink:href="#Arial-BoldMT-2d" transform="translate(300.048828 0.09375)"/>
     <use xlink:href="#Arial-BoldMT-47" transform="translate(333.349609 0.09375)"/>
     <use xlink:href="#Arial-BoldMT-50" transform="translate(411.132812 0.09375)"/>
     <use xlink:href="#Arial-BoldMT-55" transform="translate(477.832031 0.09375)"/>
     <use xlink:href="#Arial-BoldMT-20" transform="translate(550.048828 0.09375)"/>
     <use xlink:href="#DejaVuSans-Bold-46" transform="translate(577.832031 0.09375)"/>
     <use xlink:href="#Arial-BoldMT-20" transform="translate(646.142578 0.09375)"/>
     <use xlink:href="#Arial-BoldMT-4d" transform="translate(673.925781 0.09375)"/>
     <use xlink:href="#Arial-BoldMT-61" transform="translate(757.226562 0.09375)"/>
     <use xlink:href="#Arial-BoldMT-74" transform="translate(812.841797 0.09375)"/>
     <use xlink:href="#Arial-BoldMT-76" transform="translate(846.142578 0.09375)"/>
     <use xlink:href="#Arial-BoldMT-65" transform="translate(901.757812 0.09375)"/>
     <use xlink:href="#Arial-BoldMT-63" transform="translate(957.373047 0.09375)"/>
     <use xlink:href="#Arial-BoldMT-20" transform="translate(1012.988281 0.09375)"/>
     <use xlink:href="#Arial-BoldMT-50" transform="translate(1040.771484 0.09375)"/>
     <use xlink:href="#Arial-BoldMT-65" transform="translate(1107.470703 0.09375)"/>
     <use xlink:href="#Arial-BoldMT-72" transform="translate(1163.085938 0.09375)"/>
     <use xlink:href="#Arial-BoldMT-66" transform="translate(1202.001953 0.09375)"/>
     <use xlink:href="#Arial-BoldMT-6f" transform="translate(1235.302734 0.09375)"/>
     <use xlink:href="#Arial-BoldMT-72" transform="translate(1296.386719 0.09375)"/>
     <use xlink:href="#Arial-BoldMT-6d" transform="translate(1335.302734 0.09375)"/>
     <use xlink:href="#Arial-BoldMT-61" transform="translate(1424.21875 0.09375)"/>
     <use xlink:href="#Arial-BoldMT-6e" transform="translate(1479.833984 0.09375)"/>
     <use xlink:href="#Arial-BoldMT-63" transform="translate(1540.917969 0.09375)"/>
     <use xlink:href="#Arial-BoldMT-65" transform="translate(1596.533203 0.09375)"/>
     <use xlink:href="#Arial-BoldMT-20" transform="translate(1652.148438 0.09375)"/>
     <use xlink:href="#Arial-BoldMT-43" transform="translate(1679.931641 0.09375)"/>
     <use xlink:href="#Arial-BoldMT-6f" transform="translate(1752.148438 0.09375)"/>
     <use xlink:href="#Arial-BoldMT-6d" transform="translate(1813.232422 0.09375)"/>
     <use xlink:href="#Arial-BoldMT-70" transform="translate(1902.148438 0.09375)"/>
     <use xlink:href="#Arial-BoldMT-61" transform="translate(1963.232422 0.09375)"/>
     <use xlink:href="#Arial-BoldMT-72" transform="translate(2018.847656 0.09375)"/>
     <use xlink:href="#Arial-BoldMT-69" transform="translate(2057.763672 0.09375)"/>
     <use xlink:href="#Arial-BoldMT-73" transform="translate(2085.546875 0.09375)"/>
     <use xlink:href="#Arial-BoldMT-6f" transform="translate(2141.162109 0.09375)"/>
     <use xlink:href="#Arial-BoldMT-6e" transform="translate(2202.246094 0.09375)"/>
    </g>
   </g>
   <g id="legend_1">
    <g id="text_16">
     <!-- Computational Phase -->
     <g style="fill: #262626" transform="translate(299.034 79.2855) scale(0.288 -0.288)">
      <defs>
       <path id="Arial-BoldMT-75" d="M 2644 0 
L 2644 497 
Q 2463 231 2167 78 
Q 1872 -75 1544 -75 
Q 1209 -75 943 72 
Q 678 219 559 484 
Q 441 750 441 1219 
L 441 3319 
L 1319 3319 
L 1319 1794 
Q 1319 1094 1367 936 
Q 1416 778 1544 686 
Q 1672 594 1869 594 
Q 2094 594 2272 717 
Q 2450 841 2515 1023 
Q 2581 1206 2581 1919 
L 2581 3319 
L 3459 3319 
L 3459 0 
L 2644 0 
z
" transform="scale(0.015625)"/>
       <path id="Arial-BoldMT-68" d="M 1334 4581 
L 1334 2897 
Q 1759 3394 2350 3394 
Q 2653 3394 2897 3281 
Q 3141 3169 3264 2994 
Q 3388 2819 3433 2606 
Q 3478 2394 3478 1947 
L 3478 0 
L 2600 0 
L 2600 1753 
Q 2600 2275 2550 2415 
Q 2500 2556 2373 2639 
Q 2247 2722 2056 2722 
Q 1838 2722 1666 2615 
Q 1494 2509 1414 2295 
Q 1334 2081 1334 1663 
L 1334 0 
L 456 0 
L 456 4581 
L 1334 4581 
z
" transform="scale(0.015625)"/>
      </defs>
      <use xlink:href="#Arial-BoldMT-43"/>
      <use xlink:href="#Arial-BoldMT-6f" x="72.216797"/>
      <use xlink:href="#Arial-BoldMT-6d" x="133.300781"/>
      <use xlink:href="#Arial-BoldMT-70" x="222.216797"/>
      <use xlink:href="#Arial-BoldMT-75" x="283.300781"/>
      <use xlink:href="#Arial-BoldMT-74" x="344.384766"/>
      <use xlink:href="#Arial-BoldMT-61" x="377.685547"/>
      <use xlink:href="#Arial-BoldMT-74" x="433.300781"/>
      <use xlink:href="#Arial-BoldMT-69" x="466.601562"/>
      <use xlink:href="#Arial-BoldMT-6f" x="494.384766"/>
      <use xlink:href="#Arial-BoldMT-6e" x="555.46875"/>
      <use xlink:href="#Arial-BoldMT-61" x="616.552734"/>
      <use xlink:href="#Arial-BoldMT-6c" x="672.167969"/>
      <use xlink:href="#Arial-BoldMT-20" x="699.951172"/>
      <use xlink:href="#Arial-BoldMT-50" x="727.734375"/>
      <use xlink:href="#Arial-BoldMT-68" x="794.433594"/>
      <use xlink:href="#Arial-BoldMT-61" x="855.517578"/>
      <use xlink:href="#Arial-BoldMT-73" x="911.132812"/>
      <use xlink:href="#Arial-BoldMT-65" x="966.748047"/>
     </g>
    </g>
    <g id="patch_37">
     <path d="M 352.075125 117.065625 
L 404.875125 117.065625 
L 404.875125 98.585625 
L 352.075125 98.585625 
z
" style="fill: #c1a968"/>
    </g>
    <g id="text_17">
     <!-- Pad -->
     <g style="fill: #262626" transform="translate(425.995125 117.065625) scale(0.264 -0.264)">
      <defs>
       <path id="Arial-BoldMT-64" d="M 3503 0 
L 2688 0 
L 2688 488 
Q 2484 203 2207 64 
Q 1931 -75 1650 -75 
Q 1078 -75 670 386 
Q 263 847 263 1672 
Q 263 2516 659 2955 
Q 1056 3394 1663 3394 
Q 2219 3394 2625 2931 
L 2625 4581 
L 3503 4581 
L 3503 0 
z
M 1159 1731 
Q 1159 1200 1306 963 
Q 1519 619 1900 619 
Q 2203 619 2415 876 
Q 2628 1134 2628 1647 
Q 2628 2219 2422 2470 
Q 2216 2722 1894 2722 
Q 1581 2722 1370 2473 
Q 1159 2225 1159 1731 
z
" transform="scale(0.015625)"/>
      </defs>
      <use xlink:href="#Arial-BoldMT-50"/>
      <use xlink:href="#Arial-BoldMT-61" x="66.699219"/>
      <use xlink:href="#Arial-BoldMT-64" x="122.314453"/>
     </g>
    </g>
    <g id="patch_38">
     <path d="M 352.075125 154.372125 
L 404.875125 154.372125 
L 404.875125 135.892125 
L 352.075125 135.892125 
z
" style="fill: #007c97"/>
    </g>
    <g id="text_18">
     <!-- FFT -->
     <g style="fill: #262626" transform="translate(425.995125 154.372125) scale(0.264 -0.264)">
      <defs>
       <path id="Arial-BoldMT-46" d="M 472 0 
L 472 4581 
L 3613 4581 
L 3613 3806 
L 1397 3806 
L 1397 2722 
L 3309 2722 
L 3309 1947 
L 1397 1947 
L 1397 0 
L 472 0 
z
" transform="scale(0.015625)"/>
      </defs>
      <use xlink:href="#Arial-BoldMT-46"/>
      <use xlink:href="#Arial-BoldMT-46" x="61.083984"/>
      <use xlink:href="#Arial-BoldMT-54" x="122.167969"/>
     </g>
    </g>
    <g id="patch_39">
     <path d="M 352.075125 191.678625 
L 404.875125 191.678625 
L 404.875125 173.198625 
L 352.075125 173.198625 
z
" style="fill: #ed1c24"/>
    </g>
    <g id="text_19">
     <!-- SBGEMV -->
     <g style="fill: #262626" transform="translate(425.995125 191.678625) scale(0.264 -0.264)">
      <defs>
       <path id="Arial-BoldMT-42" d="M 469 4581 
L 2300 4581 
Q 2844 4581 3111 4536 
Q 3378 4491 3589 4347 
Q 3800 4203 3940 3964 
Q 4081 3725 4081 3428 
Q 4081 3106 3907 2837 
Q 3734 2569 3438 2434 
Q 3856 2313 4081 2019 
Q 4306 1725 4306 1328 
Q 4306 1016 4161 720 
Q 4016 425 3764 248 
Q 3513 72 3144 31 
Q 2913 6 2028 0 
L 469 0 
L 469 4581 
z
M 1394 3819 
L 1394 2759 
L 2000 2759 
Q 2541 2759 2672 2775 
Q 2909 2803 3045 2939 
Q 3181 3075 3181 3297 
Q 3181 3509 3064 3642 
Q 2947 3775 2716 3803 
Q 2578 3819 1925 3819 
L 1394 3819 
z
M 1394 1997 
L 1394 772 
L 2250 772 
Q 2750 772 2884 800 
Q 3091 838 3220 983 
Q 3350 1128 3350 1372 
Q 3350 1578 3250 1722 
Q 3150 1866 2961 1931 
Q 2772 1997 2141 1997 
L 1394 1997 
z
" transform="scale(0.015625)"/>
       <path id="Arial-BoldMT-45" d="M 466 0 
L 466 4581 
L 3863 4581 
L 3863 3806 
L 1391 3806 
L 1391 2791 
L 3691 2791 
L 3691 2019 
L 1391 2019 
L 1391 772 
L 3950 772 
L 3950 0 
L 466 0 
z
" transform="scale(0.015625)"/>
      </defs>
      <use xlink:href="#Arial-BoldMT-53"/>
      <use xlink:href="#Arial-BoldMT-42" x="66.699219"/>
      <use xlink:href="#Arial-BoldMT-47" x="138.916016"/>
      <use xlink:href="#Arial-BoldMT-45" x="216.699219"/>
      <use xlink:href="#Arial-BoldMT-4d" x="283.398438"/>
      <use xlink:href="#Arial-BoldMT-56" x="366.699219"/>
     </g>
    </g>
    <g id="patch_40">
     <path d="M 352.075125 228.985125 
L 404.875125 228.985125 
L 404.875125 210.505125 
L 352.075125 210.505125 
z
" style="fill: #f26522"/>
    </g>
    <g id="text_20">
     <!-- IFFT -->
     <g style="fill: #262626" transform="translate(425.995125 228.985125) scale(0.264 -0.264)">
      <use xlink:href="#Arial-BoldMT-49"/>
      <use xlink:href="#Arial-BoldMT-46" x="27.783203"/>
      <use xlink:href="#Arial-BoldMT-46" x="88.867188"/>
      <use xlink:href="#Arial-BoldMT-54" x="149.951172"/>
     </g>
    </g>
    <g id="patch_41">
     <path d="M 352.075125 266.291625 
L 404.875125 266.291625 
L 404.875125 247.811625 
L 352.075125 247.811625 
z
" style="fill: #6e6e6e"/>
    </g>
    <g id="text_21">
     <!-- Unpad -->
     <g style="fill: #262626" transform="translate(425.995125 266.291625) scale(0.264 -0.264)">
      <use xlink:href="#Arial-BoldMT-55"/>
      <use xlink:href="#Arial-BoldMT-6e" x="72.216797"/>
      <use xlink:href="#Arial-BoldMT-70" x="133.300781"/>
      <use xlink:href="#Arial-BoldMT-61" x="194.384766"/>
      <use xlink:href="#Arial-BoldMT-64" x="250"/>
     </g>
    </g>
   </g>
  </g>
 </g>
 <defs>
  <clipPath id="p3c9c0d63e3">
   <rect x="83.08875" y="34.56" width="726.312" height="703.204"/>
  </clipPath>
 </defs>
</svg>
